<svg xmlns="http://www.w3.org/2000/svg" viewBox="0 0 512 512" style="enable-background:new 0 0 512 512" xml:space="preserve"><path transform="rotate(-134.999 213.322 297.091)" style="fill:#e57225" d="M125.707 151.146h175.23v291.887h-175.23z"/><path transform="rotate(-134.999 256.764 340.521)" style="fill:#f9ae41" d="M226.956 194.576h59.614v291.887h-59.614z"/><path transform="rotate(-134.999 214.6 298.377)" style="fill:#f98821" d="M184.792 152.431h59.614v291.887h-59.614z"/><path style="fill:#f23b3b" d="m445.026 195.43 33.117-33.118c35.066-35.063 35.066-91.912-.002-126.978C443.085.274 386.233.272 351.168 35.34l-33.115 33.115L445.026 195.43z"/><path style="fill:#f23b3b" d="m445.026 195.43 33.117-33.118c35.066-35.063 35.066-91.912-.002-126.978C443.085.274 386.233.272 351.168 35.34l-33.115 33.115L445.026 195.43z"/><path style="fill:#c62222" d="M394.641 76.197c25.679-25.68 61.648-34.785 94.631-27.331C457.641 1.733 391.057-4.553 351.167 35.34l-33.115 33.115 42.165 42.166 34.424-34.424z"/><path transform="rotate(134.999 367.262 146.236)" style="fill:#e6e8e8" d="M343.05 56.45h48.419v179.572H343.05z"/><path transform="rotate(45.001 333.024 180.454)" style="fill:#d4d6d6" d="M243.235 156.252h179.572v48.409H243.235z"/><path style="fill:#c6c6c6" d="m327.981 142.568.692-.691-42.021-42.021-34.235 34.232 42.021 42.021z"/><path transform="rotate(-134.999 324.789 103.74)" style="fill:#ddd" d="M295.075 79.529h59.424v48.419h-59.424z"/><path style="fill:#f4cf9d" d="M10.336 466.608c.125-.548 37.674-127.729 37.834-128.268l126.463 126.465-130.44 35.659c-15.715 4.604-45.919 7.274-33.857-33.856z"/><path style="fill:#efbf86" d="m89.922 380.094-41.753-41.753c-.159.538-37.708 127.719-37.834 128.268-12.062 41.13 18.142 38.461 33.856 33.857l11.098-3.032 34.633-117.34z"/><path style="fill:#6b6968" d="m44.191 500.464 35.335-9.659-58.956-58.958c-.159.538-10.11 34.215-10.235 34.76-12.061 41.131 18.143 38.461 33.856 33.857z"/><path style="fill:#51504e" d="m62.323 473.6-41.752-41.753c-.159.538-10.11 34.215-10.235 34.76-12.062 41.13 18.142 38.461 33.856 33.857l11.098-3.032 7.033-23.832z"/><path d="M510.214 80.17a7.503 7.503 0 1 0-14.733 2.853c5.215 26.928-3.235 54.567-22.604 73.934l-24.985 24.985L331.481 65.531l24.983-24.983C395.696 1.314 461.778 11.39 487.572 60.471a7.504 7.504 0 0 0 13.282-6.982C470.096-5.045 391.897-16.107 345.853 29.936l-40.192 40.192L42.74 333.049a7.5 7.5 0 0 0-2.055 6.762c-.154.509-37.746 124.813-37.855 125.335-8.895 31.024 4.17 45.427 25.323 45.427 9.802 0 10.219-.695 82.749-20.523a7.501 7.501 0 0 0 5.259-9.216c-1.092-3.998-5.223-6.348-9.216-5.259l-25.303 6.918-52.531-52.532 23.196-76.733L160.116 461.04l-27.892 7.626a7.501 7.501 0 0 0-5.259 9.216c1.092 3.998 5.225 6.347 9.216 5.259l37.828-10.341a7.466 7.466 0 0 0 6.368-2.113L483.49 167.571c22.896-22.9 32.887-55.572 26.724-87.401zm-215.67 106.64 31.559 31.559-193.716 193.717-31.558-31.559L294.544 186.81zm42.17 42.172 31.56 31.56-193.716 193.716-31.56-31.56 193.716-193.716zm-84.341-84.343 31.56 31.56L90.216 369.914l-31.56-31.56 193.717-193.715zm184.908 47.915-23.638 23.638-68.396-68.396a7.503 7.503 0 0 0-10.611 10.611l68.397 68.396-23.636 23.636-116.412-116.413 23.636-23.634 29.677 29.678a7.503 7.503 0 0 0 10.611-10.611l-29.678-29.678 23.64-23.64 116.41 116.413zM24.185 446.257l40.79 40.79c-33.377 9.126-58.52 19.05-47.576-18.264.691-2.38-2.051 6.71 6.786-22.526z"/></svg>